<svg xmlns="http://www.w3.org/2000/svg" viewBox="0 0 24 24" width="24" height="24" fill="#000000"> <path d="M 12 2 C 6.476 2 2 6.476 2 12 C 2 17.524 6.476 22 12 22 C 17.524 22 22 17.524 22 12 C 22 6.476 17.524 2 12 2 z M 12 4 C 16.42 4 20 7.58 20 12 C 20 13.297219 19.769281 14.538383 19.339844 15.664062 C 18.910406 16.789742 18.290273 17.76225 17.523438 18.523438 C 16.754617 19.282438 15.854383 19.880469 14.882812 20.277344 C 13.911242 20.674219 12.882781 20.861 11.855469 20.832031 C 10.829531 20.861 9.8010701 20.674219 8.828125 20.277344 C 7.8551799 19.880469 6.9549457 19.282438 6.1875 18.523438 C 5.4206643 17.76225 4.800531 16.789742 4.3710938 15.664062 C 3.9416566 14.538383 3.7109375 13.297219 3.7109375 12 C 3.7109375 7.58 7.29 4 12 4 z M 12 6 A 9.0045 9.0045 0 0 0 3.5878906 15.564453 A 8.936952 8.936952 0 0 0 5.4355469 17.986328 A 9.20755 9.20755 0 0 1 4 12 A 9.20755 9.20755 0 0 1 4.4570312 9.21875 A 8.936952 8.936952 0 0 0 6.4121094 11.732422 A 9.0045 9.0045 0 0 0 12 6 z M 12 8 A 7.0075 7.0075 0 0 0 5.8457031 14.347656 A 7.2633 7.2633 0 0 1 7.1289062 12.796875 A 7.0075 7.0075 0 0 1 12 7 A 7.0075 7.0075 0 0 1 16.070312 12.644531 A 7.2633 7.2633 0 0 1 17.412109 14.269531 A 7.0075 7.0075 0 0 0 12 8 z M 12 10 A 5.004 5.004 0 0 0 6.1425781 13.871094 A 5.2681 5.2681 0 0 1 7.6289062 12.8125 A 5.004 5.004 0 0 1 12 10 z M 12 12 A 3.0003 3.0003 0 0 0 8.1660156 14.84375 A 3.2685 3.2685 0 0 1 9.2851562 13.759766 A 3.0003 3.0003 0 0 1 12 12 z"/>
    </svg>